<svg width="485" height="353" viewBox="0 0 485 353" fill="none" xmlns="http://www.w3.org/2000/svg">
<g clip-path="url(#clip0_1_159)">
<path d="M282.512 62.23C291.601 62.23 298.97 54.8559 298.97 45.7596C298.97 36.6632 291.601 29.2891 282.512 29.2891C273.422 29.2891 266.053 36.6632 266.053 45.7596C266.053 54.8559 273.422 62.23 282.512 62.23Z" fill="#E9ECEF"/>
<path d="M410.185 306.671C434.649 288.024 446.334 256.69 439.019 226.799C438.837 226.056 438.645 225.315 438.443 224.576C433.594 206.833 421.596 189.97 404.109 184.301C389.427 179.541 373.4 183.201 358.083 181.308C328.014 177.592 304.702 153.245 288.299 127.753C271.896 102.262 259.29 73.7271 237.494 52.6672C201.567 17.9535 142.961 10.4796 98.4162 33.0756C53.8719 55.6717 25.4976 105.803 26.7076 155.765C27.9178 205.727 57.5565 253.495 100.599 278.838C116.411 288.148 134.7 294.744 152.9 292.436C168.692 290.433 183.042 281.942 198.76 279.421C223.472 275.457 248.027 286.638 269.402 299.668C290.776 312.698 311.422 328.142 335.711 334.183C359.296 340.048 388.514 323.189 410.185 306.671Z" fill="#E9ECEF"/>
<path d="M375.037 34.1244C374.501 33.7666 373.958 33.4274 373.422 33.0819C357.92 23.1603 341.304 15.1001 323.918 9.06777L319.887 64.7204H294.331V0.943787C292.722 0.610686 291.101 0.29609 289.48 0V64.7204H259.11C242.39 64.7204 226.356 58.0739 214.534 46.2431C202.711 34.4122 196.07 18.3661 196.07 1.63474C194.442 1.98634 192.828 2.36257 191.213 2.76353V64.7204H166.476L162.636 11.6524C144.769 18.5095 127.807 27.527 112.128 38.5041C111.856 38.6892 111.585 38.8804 111.32 39.0654C109.958 40.0216 108.614 40.9962 107.277 41.9832V254.298H180.179L178.891 236.44L171.802 138.391H314.555L307.467 236.44L306.178 254.298H378.273V36.2711C377.2 35.5432 376.122 34.8277 375.037 34.1244ZM191.213 122.199H170.631L166.828 69.5812H191.213V122.199ZM289.48 122.199H254.912V121.156C254.912 120.655 254.813 120.159 254.621 119.696C254.43 119.233 254.148 118.813 253.794 118.459C253.44 118.105 253.019 117.824 252.556 117.633C252.093 117.441 251.597 117.343 251.096 117.344H236.068C235.568 117.344 235.073 117.443 234.61 117.634C234.148 117.826 233.728 118.106 233.374 118.46C233.021 118.814 232.74 119.235 232.549 119.697C232.357 120.16 232.259 120.656 232.259 121.156V122.199H196.07V69.5812H289.48V122.199ZM294.331 122.199V69.5812H319.536L315.733 122.199H294.331Z" fill="#212529"/>
<path d="M0 267.894C5.35487 274.244 11.1468 280.211 17.3333 285.752L467.667 286.369C473.853 280.828 479.645 274.861 485 268.511L0 267.894Z" fill="#212529"/>
<path d="M305.386 210.712V263.579C305.386 264.253 305.654 264.899 306.13 265.375C306.606 265.851 307.251 266.119 307.925 266.12H386.211C386.884 266.119 387.53 265.851 388.006 265.375C388.482 264.899 388.749 264.253 388.75 263.579V210.712C388.748 210.039 388.48 209.394 388.004 208.918C387.528 208.442 386.884 208.175 386.211 208.174H307.925C307.252 208.175 306.607 208.442 306.131 208.918C305.655 209.394 305.387 210.039 305.386 210.712Z" fill="#212529"/>
<path d="M307.222 211.371V262.928C307.223 263.287 307.366 263.633 307.62 263.887C307.875 264.142 308.219 264.285 308.579 264.285H385.559C385.919 264.285 386.264 264.142 386.518 263.887C386.772 263.633 386.916 263.287 386.916 262.928V211.371C386.916 211.01 386.773 210.664 386.519 210.409C386.264 210.154 385.919 210.011 385.559 210.01H308.579C308.219 210.011 307.874 210.154 307.619 210.409C307.365 210.664 307.222 211.01 307.222 211.371Z" fill="#E18F3B"/>
<path d="M303.748 273.89C303.892 274.07 304.074 274.215 304.282 274.314C304.489 274.414 304.716 274.465 304.946 274.464H388.772C389.002 274.463 389.228 274.412 389.435 274.313C389.642 274.214 389.824 274.071 389.968 273.892C390.113 273.714 390.216 273.506 390.27 273.283C390.324 273.06 390.327 272.828 390.28 272.603L388.979 266.418C388.925 266.166 388.809 265.931 388.641 265.735C388.473 265.539 388.259 265.389 388.019 265.297C387.844 265.228 387.658 265.193 387.471 265.193H306.242C306.055 265.193 305.869 265.228 305.695 265.297C305.454 265.389 305.24 265.539 305.072 265.735C304.905 265.931 304.788 266.166 304.735 266.418L303.433 272.603C303.387 272.828 303.391 273.06 303.446 273.282C303.5 273.505 303.604 273.712 303.748 273.89Z" fill="#212529"/>
<path d="M384.595 267.857H386.575C386.741 267.857 386.876 267.723 386.876 267.556V266.608C386.876 266.442 386.741 266.307 386.575 266.307H384.595C384.429 266.307 384.294 266.442 384.294 266.608V267.556C384.294 267.723 384.429 267.857 384.595 267.857Z" fill="#212529"/>
<path d="M379.431 267.857H381.411C381.578 267.857 381.712 267.723 381.712 267.556V266.608C381.712 266.442 381.578 266.307 381.411 266.307H379.431C379.265 266.307 379.13 266.442 379.13 266.608V267.556C379.13 267.723 379.265 267.857 379.431 267.857Z" fill="#212529"/>
<path d="M374.268 267.857H376.248C376.414 267.857 376.549 267.723 376.549 267.556V266.608C376.549 266.442 376.414 266.307 376.248 266.307H374.268C374.102 266.307 373.967 266.442 373.967 266.608V267.556C373.967 267.723 374.102 267.857 374.268 267.857Z" fill="#212529"/>
<path d="M369.104 267.857H371.084C371.25 267.857 371.385 267.723 371.385 267.556V266.608C371.385 266.442 371.25 266.307 371.084 266.307H369.104C368.938 266.307 368.803 266.442 368.803 266.608V267.556C368.803 267.723 368.938 267.857 369.104 267.857Z" fill="#212529"/>
<path d="M363.941 267.857H365.921C366.087 267.857 366.221 267.723 366.221 267.556V266.608C366.221 266.442 366.087 266.307 365.921 266.307H363.941C363.774 266.307 363.64 266.442 363.64 266.608V267.556C363.64 267.723 363.774 267.857 363.941 267.857Z" fill="#212529"/>
<path d="M358.777 267.857H360.757C360.923 267.857 361.058 267.723 361.058 267.556V266.608C361.058 266.442 360.923 266.307 360.757 266.307H358.777C358.611 266.307 358.476 266.442 358.476 266.608V267.556C358.476 267.723 358.611 267.857 358.777 267.857Z" fill="#212529"/>
<path d="M353.613 267.857H355.593C355.759 267.857 355.894 267.723 355.894 267.556V266.608C355.894 266.442 355.759 266.307 355.593 266.307H353.613C353.447 266.307 353.312 266.442 353.312 266.608V267.556C353.312 267.723 353.447 267.857 353.613 267.857Z" fill="#212529"/>
<path d="M348.45 267.857H350.43C350.596 267.857 350.731 267.723 350.731 267.556V266.608C350.731 266.442 350.596 266.307 350.43 266.307H348.45C348.284 266.307 348.149 266.442 348.149 266.608V267.556C348.149 267.723 348.284 267.857 348.45 267.857Z" fill="#212529"/>
<path d="M343.286 267.857H345.266C345.432 267.857 345.567 267.723 345.567 267.556V266.608C345.567 266.442 345.432 266.307 345.266 266.307H343.286C343.12 266.307 342.985 266.442 342.985 266.608V267.556C342.985 267.723 343.12 267.857 343.286 267.857Z" fill="#212529"/>
<path d="M338.122 267.857H340.102C340.269 267.857 340.403 267.723 340.403 267.556V266.608C340.403 266.442 340.269 266.307 340.102 266.307H338.122C337.956 266.307 337.821 266.442 337.821 266.608V267.556C337.821 267.723 337.956 267.857 338.122 267.857Z" fill="#212529"/>
<path d="M332.959 267.857H334.939C335.105 267.857 335.24 267.723 335.24 267.556V266.608C335.24 266.442 335.105 266.307 334.939 266.307H332.959C332.793 266.307 332.658 266.442 332.658 266.608V267.556C332.658 267.723 332.793 267.857 332.959 267.857Z" fill="#212529"/>
<path d="M327.795 267.857H329.775C329.941 267.857 330.076 267.723 330.076 267.556V266.608C330.076 266.442 329.941 266.307 329.775 266.307H327.795C327.629 266.307 327.494 266.442 327.494 266.608V267.556C327.494 267.723 327.629 267.857 327.795 267.857Z" fill="#212529"/>
<path d="M322.632 267.857H324.612C324.778 267.857 324.912 267.723 324.912 267.556V266.608C324.912 266.442 324.778 266.307 324.612 266.307H322.632C322.465 266.307 322.331 266.442 322.331 266.608V267.556C322.331 267.723 322.465 267.857 322.632 267.857Z" fill="#212529"/>
<path d="M317.468 267.857H319.448C319.614 267.857 319.749 267.723 319.749 267.556V266.608C319.749 266.442 319.614 266.307 319.448 266.307H317.468C317.302 266.307 317.167 266.442 317.167 266.608V267.556C317.167 267.723 317.302 267.857 317.468 267.857Z" fill="#212529"/>
<path d="M312.304 267.857H314.284C314.45 267.857 314.585 267.723 314.585 267.556V266.608C314.585 266.442 314.45 266.307 314.284 266.307H312.304C312.138 266.307 312.003 266.442 312.003 266.608V267.556C312.003 267.723 312.138 267.857 312.304 267.857Z" fill="#212529"/>
<path d="M307.141 267.857H309.121C309.287 267.857 309.422 267.723 309.422 267.556V266.608C309.422 266.442 309.287 266.307 309.121 266.307H307.141C306.975 266.307 306.84 266.442 306.84 266.608V267.556C306.84 267.723 306.975 267.857 307.141 267.857Z" fill="#212529"/>
<path d="M384.656 270.44H386.636C386.802 270.44 386.937 270.306 386.937 270.139V269.191C386.937 269.025 386.802 268.89 386.636 268.89H384.656C384.49 268.89 384.355 269.025 384.355 269.191V270.139C384.355 270.306 384.49 270.44 384.656 270.44Z" fill="#212529"/>
<path d="M379.492 270.44H381.472C381.638 270.44 381.773 270.306 381.773 270.139V269.191C381.773 269.025 381.638 268.89 381.472 268.89H379.492C379.326 268.89 379.191 269.025 379.191 269.191V270.139C379.191 270.306 379.326 270.44 379.492 270.44Z" fill="#212529"/>
<path d="M374.329 270.44H376.309C376.475 270.44 376.61 270.306 376.61 270.139V269.191C376.61 269.025 376.475 268.89 376.309 268.89H374.329C374.163 268.89 374.028 269.025 374.028 269.191V270.139C374.028 270.306 374.163 270.44 374.329 270.44Z" fill="#212529"/>
<path d="M369.165 270.44H371.145C371.311 270.44 371.446 270.306 371.446 270.139V269.191C371.446 269.025 371.311 268.89 371.145 268.89H369.165C368.999 268.89 368.864 269.025 368.864 269.191V270.139C368.864 270.306 368.999 270.44 369.165 270.44Z" fill="#212529"/>
<path d="M364.001 270.44H365.981C366.148 270.44 366.282 270.306 366.282 270.139V269.191C366.282 269.025 366.148 268.89 365.981 268.89H364.001C363.835 268.89 363.701 269.025 363.701 269.191V270.139C363.701 270.306 363.835 270.44 364.001 270.44Z" fill="#212529"/>
<path d="M358.838 270.44H360.818C360.984 270.44 361.119 270.306 361.119 270.139V269.191C361.119 269.025 360.984 268.89 360.818 268.89H358.838C358.672 268.89 358.537 269.025 358.537 269.191V270.139C358.537 270.306 358.672 270.44 358.838 270.44Z" fill="#212529"/>
<path d="M353.674 270.44H355.654C355.82 270.44 355.955 270.306 355.955 270.139V269.191C355.955 269.025 355.82 268.89 355.654 268.89H353.674C353.508 268.89 353.373 269.025 353.373 269.191V270.139C353.373 270.306 353.508 270.44 353.674 270.44Z" fill="#212529"/>
<path d="M348.511 270.44H350.491C350.657 270.44 350.792 270.306 350.792 270.139V269.191C350.792 269.025 350.657 268.89 350.491 268.89H348.511C348.344 268.89 348.21 269.025 348.21 269.191V270.139C348.21 270.306 348.344 270.44 348.511 270.44Z" fill="#212529"/>
<path d="M343.347 270.44H345.327C345.493 270.44 345.628 270.306 345.628 270.139V269.191C345.628 269.025 345.493 268.89 345.327 268.89H343.347C343.181 268.89 343.046 269.025 343.046 269.191V270.139C343.046 270.306 343.181 270.44 343.347 270.44Z" fill="#212529"/>
<path d="M338.183 270.44H340.163C340.33 270.44 340.464 270.306 340.464 270.139V269.191C340.464 269.025 340.33 268.89 340.163 268.89H338.183C338.017 268.89 337.883 269.025 337.883 269.191V270.139C337.883 270.306 338.017 270.44 338.183 270.44Z" fill="#212529"/>
<path d="M333.02 270.44H335C335.166 270.44 335.301 270.306 335.301 270.139V269.191C335.301 269.025 335.166 268.89 335 268.89H333.02C332.854 268.89 332.719 269.025 332.719 269.191V270.139C332.719 270.306 332.854 270.44 333.02 270.44Z" fill="#212529"/>
<path d="M327.856 270.44H329.836C330.002 270.44 330.137 270.306 330.137 270.139V269.191C330.137 269.025 330.002 268.89 329.836 268.89H327.856C327.69 268.89 327.555 269.025 327.555 269.191V270.139C327.555 270.306 327.69 270.44 327.856 270.44Z" fill="#212529"/>
<path d="M322.693 270.44H324.673C324.839 270.44 324.974 270.306 324.974 270.139V269.191C324.974 269.025 324.839 268.89 324.673 268.89H322.693C322.526 268.89 322.392 269.025 322.392 269.191V270.139C322.392 270.306 322.526 270.44 322.693 270.44Z" fill="#212529"/>
<path d="M317.529 270.44H319.509C319.675 270.44 319.81 270.306 319.81 270.139V269.191C319.81 269.025 319.675 268.89 319.509 268.89H317.529C317.363 268.89 317.228 269.025 317.228 269.191V270.139C317.228 270.306 317.363 270.44 317.529 270.44Z" fill="#212529"/>
<path d="M312.365 270.44H314.345C314.512 270.44 314.646 270.306 314.646 270.139V269.191C314.646 269.025 314.512 268.89 314.345 268.89H312.365C312.199 268.89 312.064 269.025 312.064 269.191V270.139C312.064 270.306 312.199 270.44 312.365 270.44Z" fill="#212529"/>
<path d="M307.202 270.44H309.182C309.348 270.44 309.483 270.306 309.483 270.139V269.191C309.483 269.025 309.348 268.89 309.182 268.89H307.202C307.036 268.89 306.901 269.025 306.901 269.191V270.139C306.901 270.306 307.036 270.44 307.202 270.44Z" fill="#212529"/>
<path d="M341.798 273.541H361.851C362.017 273.541 362.151 273.406 362.151 273.24V272.292C362.151 272.126 362.017 271.991 361.851 271.991H341.798C341.632 271.991 341.497 272.126 341.497 272.292V273.24C341.497 273.406 341.632 273.541 341.798 273.541Z" fill="#212529"/>
<path d="M320.553 221.289H318.8C318.268 221.289 317.838 221.72 317.838 222.252C317.838 222.784 318.268 223.215 318.8 223.215H320.553C321.084 223.215 321.515 222.784 321.515 222.252C321.515 221.72 321.084 221.289 320.553 221.289Z" fill="#F8F9FA"/>
<path d="M340.6 221.289H338.847C338.316 221.289 337.885 221.72 337.885 222.252C337.885 222.784 338.316 223.215 338.847 223.215H340.6C341.132 223.215 341.562 222.784 341.562 222.252C341.562 221.72 341.132 221.289 340.6 221.289Z" fill="#F8F9FA"/>
<path d="M346.28 221.289H344.527C343.996 221.289 343.565 221.72 343.565 222.252C343.565 222.784 343.996 223.215 344.527 223.215H346.28C346.812 223.215 347.243 222.784 347.243 222.252C347.243 221.72 346.812 221.289 346.28 221.289Z" fill="#F8F9FA"/>
<path d="M335.147 221.128H324.253C323.721 221.128 323.291 221.559 323.291 222.091C323.291 222.623 323.721 223.054 324.253 223.054H335.147C335.679 223.054 336.11 222.623 336.11 222.091C336.11 221.559 335.679 221.128 335.147 221.128Z" fill="#F8F9FA"/>
<path d="M361.877 221.128H350.983C350.451 221.128 350.021 221.559 350.021 222.091C350.021 222.623 350.451 223.054 350.983 223.054H361.877C362.409 223.054 362.839 222.623 362.839 222.091C362.839 221.559 362.409 221.128 361.877 221.128Z" fill="#F8F9FA"/>
<path d="M325.899 225.636H324.146C323.615 225.636 323.184 226.067 323.184 226.599C323.184 227.131 323.615 227.562 324.146 227.562H325.899C326.43 227.562 326.861 227.131 326.861 226.599C326.861 226.067 326.43 225.636 325.899 225.636Z" fill="#F8F9FA"/>
<path d="M345.946 225.636H344.193C343.662 225.636 343.231 226.067 343.231 226.599C343.231 227.131 343.662 227.562 344.193 227.562H345.946C346.478 227.562 346.908 227.131 346.908 226.599C346.908 226.067 346.478 225.636 345.946 225.636Z" fill="#F8F9FA"/>
<path d="M351.626 225.636H349.873C349.342 225.636 348.911 226.067 348.911 226.599C348.911 227.131 349.342 227.562 349.873 227.562H351.626C352.158 227.562 352.588 227.131 352.588 226.599C352.588 226.067 352.158 225.636 351.626 225.636Z" fill="#F8F9FA"/>
<path d="M340.493 225.475H329.599C329.067 225.475 328.637 225.906 328.637 226.438C328.637 226.969 329.067 227.401 329.599 227.401H340.493C341.025 227.401 341.455 226.969 341.455 226.438C341.455 225.906 341.025 225.475 340.493 225.475Z" fill="#F8F9FA"/>
<path d="M367.223 225.475H356.329C355.797 225.475 355.366 225.906 355.366 226.438C355.366 226.969 355.797 227.401 356.329 227.401H367.223C367.754 227.401 368.185 226.969 368.185 226.438C368.185 225.906 367.754 225.475 367.223 225.475Z" fill="#F8F9FA"/>
<path d="M331.245 229.982H329.492C328.96 229.982 328.53 230.413 328.53 230.945C328.53 231.477 328.96 231.908 329.492 231.908H331.245C331.776 231.908 332.207 231.477 332.207 230.945C332.207 230.413 331.776 229.982 331.245 229.982Z" fill="#F8F9FA"/>
<path d="M351.292 229.982H349.539C349.008 229.982 348.577 230.413 348.577 230.945C348.577 231.477 349.008 231.908 349.539 231.908H351.292C351.824 231.908 352.254 231.477 352.254 230.945C352.254 230.413 351.824 229.982 351.292 229.982Z" fill="#F8F9FA"/>
<path d="M356.972 229.982H355.219C354.688 229.982 354.257 230.413 354.257 230.945C354.257 231.477 354.688 231.908 355.219 231.908H356.972C357.504 231.908 357.934 231.477 357.934 230.945C357.934 230.413 357.504 229.982 356.972 229.982Z" fill="#F8F9FA"/>
<path d="M345.839 229.821H334.945C334.413 229.821 333.983 230.252 333.983 230.784C333.983 231.316 334.413 231.747 334.945 231.747H345.839C346.371 231.747 346.801 231.316 346.801 230.784C346.801 230.252 346.371 229.821 345.839 229.821Z" fill="#F8F9FA"/>
<path d="M372.569 229.821H361.675C361.143 229.821 360.712 230.252 360.712 230.784C360.712 231.316 361.143 231.747 361.675 231.747H372.569C373.1 231.747 373.531 231.316 373.531 230.784C373.531 230.252 373.1 229.821 372.569 229.821Z" fill="#F8F9FA"/>
<path d="M336.591 234.329H334.838C334.306 234.329 333.876 234.76 333.876 235.292C333.876 235.824 334.306 236.255 334.838 236.255H336.591C337.122 236.255 337.553 235.824 337.553 235.292C337.553 234.76 337.122 234.329 336.591 234.329Z" fill="#F8F9FA"/>
<path d="M356.638 234.329H354.885C354.354 234.329 353.923 234.76 353.923 235.292C353.923 235.824 354.354 236.255 354.885 236.255H356.638C357.17 236.255 357.6 235.824 357.6 235.292C357.6 234.76 357.17 234.329 356.638 234.329Z" fill="#F8F9FA"/>
<path d="M362.318 234.329H360.565C360.034 234.329 359.603 234.76 359.603 235.292C359.603 235.824 360.034 236.255 360.565 236.255H362.318C362.85 236.255 363.28 235.824 363.28 235.292C363.28 234.76 362.85 234.329 362.318 234.329Z" fill="#F8F9FA"/>
<path d="M351.185 234.168H340.291C339.759 234.168 339.329 234.599 339.329 235.131C339.329 235.663 339.759 236.094 340.291 236.094H351.185C351.717 236.094 352.147 235.663 352.147 235.131C352.147 234.599 351.717 234.168 351.185 234.168Z" fill="#F8F9FA"/>
<path d="M340.6 251.613H338.847C338.316 251.613 337.885 252.044 337.885 252.576C337.885 253.108 338.316 253.539 338.847 253.539H340.6C341.132 253.539 341.562 253.108 341.562 252.576C341.562 252.044 341.132 251.613 340.6 251.613Z" fill="#F8F9FA"/>
<path d="M346.28 251.613H344.527C343.996 251.613 343.565 252.044 343.565 252.576C343.565 253.108 343.996 253.539 344.527 253.539H346.28C346.812 253.539 347.243 253.108 347.243 252.576C347.243 252.044 346.812 251.613 346.28 251.613Z" fill="#F8F9FA"/>
<path d="M361.877 251.774H350.983C350.451 251.774 350.021 252.206 350.021 252.737C350.021 253.269 350.451 253.7 350.983 253.7H361.877C362.409 253.7 362.839 253.269 362.839 252.737C362.839 252.206 362.409 251.774 361.877 251.774Z" fill="#F8F9FA"/>
<path d="M320.553 251.613H318.8C318.268 251.613 317.838 252.044 317.838 252.576C317.838 253.108 318.268 253.539 318.8 253.539H320.553C321.084 253.539 321.515 253.108 321.515 252.576C321.515 252.044 321.084 251.613 320.553 251.613Z" fill="#F8F9FA"/>
<path d="M335.147 251.774H324.253C323.721 251.774 323.291 252.206 323.291 252.737C323.291 253.269 323.721 253.7 324.253 253.7H335.147C335.679 253.7 336.11 253.269 336.11 252.737C336.11 252.206 335.679 251.774 335.147 251.774Z" fill="#F8F9FA"/>
<path d="M325.899 247.267H324.146C323.615 247.267 323.184 247.698 323.184 248.23C323.184 248.762 323.615 249.193 324.146 249.193H325.899C326.43 249.193 326.861 248.762 326.861 248.23C326.861 247.698 326.43 247.267 325.899 247.267Z" fill="#F8F9FA"/>
<path d="M345.946 247.267H344.193C343.662 247.267 343.231 247.698 343.231 248.23C343.231 248.762 343.662 249.193 344.193 249.193H345.946C346.478 249.193 346.908 248.762 346.908 248.23C346.908 247.698 346.478 247.267 345.946 247.267Z" fill="#F8F9FA"/>
<path d="M351.626 247.267H349.873C349.342 247.267 348.911 247.698 348.911 248.23C348.911 248.762 349.342 249.193 349.873 249.193H351.626C352.158 249.193 352.588 248.762 352.588 248.23C352.588 247.698 352.158 247.267 351.626 247.267Z" fill="#F8F9FA"/>
<path d="M340.493 247.428H329.599C329.067 247.428 328.637 247.859 328.637 248.391C328.637 248.923 329.067 249.354 329.599 249.354H340.493C341.025 249.354 341.455 248.923 341.455 248.391C341.455 247.859 341.025 247.428 340.493 247.428Z" fill="#F8F9FA"/>
<path d="M331.245 242.92H329.492C328.96 242.92 328.53 243.351 328.53 243.883C328.53 244.415 328.96 244.846 329.492 244.846H331.245C331.776 244.846 332.207 244.415 332.207 243.883C332.207 243.351 331.776 242.92 331.245 242.92Z" fill="#F8F9FA"/>
<path d="M351.292 242.92H349.539C349.008 242.92 348.577 243.351 348.577 243.883C348.577 244.415 349.008 244.846 349.539 244.846H351.292C351.824 244.846 352.254 244.415 352.254 243.883C352.254 243.351 351.824 242.92 351.292 242.92Z" fill="#F8F9FA"/>
<path d="M356.972 242.92H355.219C354.688 242.92 354.257 243.351 354.257 243.883C354.257 244.415 354.688 244.846 355.219 244.846H356.972C357.504 244.846 357.934 244.415 357.934 243.883C357.934 243.351 357.504 242.92 356.972 242.92Z" fill="#F8F9FA"/>
<path d="M345.839 243.081H334.945C334.413 243.081 333.983 243.512 333.983 244.044C333.983 244.576 334.413 245.007 334.945 245.007H345.839C346.371 245.007 346.801 244.576 346.801 244.044C346.801 243.512 346.371 243.081 345.839 243.081Z" fill="#F8F9FA"/>
<path d="M336.591 238.573H334.838C334.306 238.573 333.876 239.004 333.876 239.536C333.876 240.068 334.306 240.499 334.838 240.499H336.591C337.122 240.499 337.553 240.068 337.553 239.536C337.553 239.004 337.122 238.573 336.591 238.573Z" fill="#F8F9FA"/>
<path d="M356.638 238.573H354.885C354.354 238.573 353.923 239.004 353.923 239.536C353.923 240.068 354.354 240.499 354.885 240.499H356.638C357.17 240.499 357.6 240.068 357.6 239.536C357.6 239.004 357.17 238.573 356.638 238.573Z" fill="#F8F9FA"/>
<path d="M362.318 238.573H360.565C360.034 238.573 359.603 239.004 359.603 239.536C359.603 240.068 360.034 240.499 360.565 240.499H362.318C362.85 240.499 363.28 240.068 363.28 239.536C363.28 239.004 362.85 238.573 362.318 238.573Z" fill="#F8F9FA"/>
<path d="M351.185 238.733H340.291C339.759 238.733 339.329 239.165 339.329 239.696C339.329 240.228 339.759 240.659 340.291 240.659H351.185C351.717 240.659 352.147 240.228 352.147 239.696C352.147 239.165 351.717 238.733 351.185 238.733Z" fill="#F8F9FA"/>
<path d="M311.234 302.556L303.005 289.539L328.834 268.935L339.494 257.115C340.879 255.579 342.643 254.435 344.609 253.795C346.575 253.155 348.674 253.042 350.696 253.469C352.719 253.895 354.595 254.845 356.135 256.224C357.676 257.603 358.829 259.363 359.477 261.327C360.438 264.238 360.231 267.408 358.901 270.169C357.57 272.93 355.22 275.066 352.345 276.126L335.487 282.341L311.234 302.556Z" fill="#FADCA2"/>
<path d="M118.159 208.176V271.441H162.447V208.176C162.448 207.721 162.303 207.278 162.033 206.912C161.764 206.545 161.384 206.275 160.95 206.141C160.745 206.073 160.53 206.04 160.315 206.042H120.298C120.017 206.042 119.739 206.096 119.48 206.203C119.221 206.31 118.985 206.467 118.786 206.666C118.587 206.864 118.43 207.099 118.322 207.359C118.214 207.618 118.159 207.896 118.159 208.176ZM135.443 229.914C135.454 228.667 135.957 227.475 136.843 226.597C137.728 225.719 138.924 225.227 140.171 225.227C141.417 225.227 142.613 225.719 143.498 226.597C144.384 227.475 144.887 228.667 144.898 229.914V237.255C144.892 238.506 144.391 239.703 143.505 240.585C142.619 241.467 141.42 241.962 140.171 241.962C138.921 241.962 137.722 241.467 136.836 240.585C135.95 239.703 135.449 238.506 135.443 237.255V229.914Z" fill="#212529"/>
<path d="M118.023 269.418V275.519C118.024 275.835 118.15 276.138 118.372 276.362C118.595 276.586 118.897 276.713 119.213 276.715H161.393C161.71 276.714 162.012 276.587 162.235 276.363C162.458 276.139 162.583 275.835 162.583 275.519V269.418H118.023Z" fill="#212529"/>
<path d="M48.4865 112.86V228.372C48.4876 229.844 49.0725 231.256 50.1126 232.297C51.1527 233.337 52.5631 233.923 54.0341 233.924H225.087C226.558 233.923 227.968 233.337 229.008 232.297C230.048 231.256 230.633 229.844 230.634 228.372V112.86C230.631 111.389 230.045 109.98 229.005 108.94C227.965 107.901 226.556 107.316 225.087 107.314H54.0341C52.5644 107.316 51.1554 107.901 50.1156 108.94C49.0758 109.98 48.49 111.389 48.4865 112.86Z" fill="#212529"/>
<path d="M52.4993 114.298V226.948C52.5006 227.734 52.8134 228.488 53.3692 229.044C53.9249 229.6 54.6782 229.913 55.4642 229.915H223.663C224.449 229.913 225.202 229.6 225.758 229.044C226.313 228.488 226.626 227.734 226.628 226.948V114.298C226.628 113.51 226.315 112.755 225.759 112.197C225.204 111.64 224.45 111.326 223.663 111.324H55.4642C54.6773 111.326 53.9232 111.64 53.3674 112.197C52.8116 112.755 52.4993 113.51 52.4993 114.298Z" fill="#F8F9FA"/>
<path d="M83.7141 276.303C83.8853 276.517 84.1029 276.691 84.3505 276.809C84.5982 276.928 84.8695 276.989 85.1441 276.987H185.211C185.485 276.987 185.755 276.926 186.002 276.808C186.249 276.69 186.467 276.518 186.639 276.305C186.812 276.093 186.934 275.844 186.999 275.578C187.063 275.312 187.067 275.035 187.011 274.767L185.458 267.383C185.394 267.082 185.255 266.802 185.055 266.568C184.854 266.334 184.599 266.154 184.311 266.044C184.103 265.963 183.882 265.921 183.658 265.921H86.6913C86.4677 265.921 86.2461 265.963 86.0379 266.044C85.7504 266.154 85.4949 266.334 85.2946 266.568C85.0944 266.801 84.9558 267.082 84.8914 267.383L83.3381 274.767C83.2828 275.034 83.2879 275.311 83.3529 275.577C83.4179 275.843 83.5413 276.091 83.7141 276.303Z" fill="#212529"/>
<path d="M218.204 126.842H60.8213C60.6578 126.839 60.5021 126.771 60.3877 126.654C60.2733 126.537 60.2092 126.38 60.2092 126.216C60.2092 126.052 60.2733 125.895 60.3877 125.778C60.5021 125.661 60.6578 125.593 60.8213 125.59H218.204C218.368 125.593 218.523 125.661 218.638 125.778C218.752 125.895 218.816 126.052 218.816 126.216C218.816 126.38 218.752 126.537 218.638 126.654C218.523 126.771 218.368 126.839 218.204 126.842Z" fill="#212529"/>
<path d="M71.5347 122.391C73.5604 122.391 75.2026 120.711 75.2026 118.639C75.2026 116.567 73.5604 114.887 71.5347 114.887C69.509 114.887 67.8668 116.567 67.8668 118.639C67.8668 120.711 69.509 122.391 71.5347 122.391Z" fill="#212529"/>
<path d="M84.2055 122.391C86.2312 122.391 87.8733 120.711 87.8733 118.639C87.8733 116.567 86.2312 114.887 84.2055 114.887C82.1798 114.887 80.5376 116.567 80.5376 118.639C80.5376 120.711 82.1798 122.391 84.2055 122.391Z" fill="#212529"/>
<path d="M96.8764 122.391C98.9021 122.391 100.544 120.711 100.544 118.639C100.544 116.567 98.9021 114.887 96.8764 114.887C94.8507 114.887 93.2085 116.567 93.2085 118.639C93.2085 120.711 94.8507 122.391 96.8764 122.391Z" fill="#212529"/>
<path d="M210.574 115.815H201.575C201.397 115.82 201.228 115.893 201.103 116.021C200.979 116.148 200.909 116.319 200.909 116.497C200.909 116.675 200.979 116.846 201.103 116.974C201.228 117.101 201.397 117.175 201.575 117.179H210.574C210.753 117.176 210.924 117.103 211.05 116.976C211.175 116.848 211.246 116.676 211.246 116.497C211.246 116.318 211.175 116.146 211.05 116.018C210.924 115.891 210.753 115.818 210.574 115.815Z" fill="#212529"/>
<path d="M210.574 118.375H201.575C201.397 118.379 201.227 118.452 201.103 118.58C200.978 118.707 200.908 118.878 200.908 119.057C200.908 119.235 200.978 119.406 201.103 119.533C201.227 119.661 201.397 119.734 201.575 119.738H210.574C210.753 119.736 210.924 119.663 211.05 119.536C211.176 119.408 211.247 119.236 211.247 119.057C211.247 118.877 211.176 118.705 211.05 118.578C210.924 118.45 210.753 118.377 210.574 118.375Z" fill="#212529"/>
<path d="M210.574 120.935H201.575C201.397 120.939 201.228 121.012 201.103 121.14C200.979 121.267 200.909 121.438 200.909 121.616C200.909 121.794 200.979 121.965 201.103 122.093C201.228 122.22 201.397 122.294 201.575 122.298H210.574C210.753 122.295 210.924 122.222 211.05 122.095C211.175 121.967 211.246 121.795 211.246 121.616C211.246 121.437 211.175 121.265 211.05 121.138C210.924 121.01 210.753 120.937 210.574 120.935Z" fill="#212529"/>
<path d="M427.536 272.096C427.808 272.887 428.323 273.572 429.008 274.052C429.692 274.532 430.511 274.782 431.347 274.767L447.677 274.347C448.519 274.33 449.333 274.042 449.998 273.524C450.662 273.006 451.141 272.287 451.364 271.474L453.675 246.746C454.494 247.118 455.387 247.301 456.287 247.283C457.069 247.264 457.839 247.09 458.554 246.773C459.269 246.455 459.914 246 460.453 245.433C460.992 244.865 461.414 244.198 461.695 243.467C461.976 242.737 462.11 241.958 462.091 241.176C462.071 240.394 461.898 239.623 461.58 238.907C461.263 238.192 460.808 237.546 460.241 237.007C459.675 236.468 459.007 236.045 458.278 235.764C457.548 235.483 456.77 235.348 455.988 235.368C455.628 235.367 455.269 235.404 454.918 235.479C454.535 235.065 454.07 234.736 453.553 234.512C453.035 234.289 452.477 234.176 451.913 234.182L426.795 234.831C426.586 234.839 426.379 234.864 426.175 234.908C425.624 235.011 425.102 235.23 424.643 235.552C424.184 235.874 423.799 236.29 423.514 236.773C423.23 237.256 423.052 237.795 422.993 238.352C422.933 238.91 422.994 239.474 423.171 240.006L427.536 272.096ZM454.148 245.067L455.793 239.174C455.98 238.494 455.984 237.776 455.805 237.093C455.885 237.093 455.956 237.055 456.035 237.055C457.163 237.031 458.253 237.456 459.068 238.237C459.883 239.017 460.355 240.088 460.382 241.217C460.408 242.345 459.987 243.438 459.209 244.255C458.432 245.073 457.362 245.548 456.235 245.578C455.506 245.601 454.785 245.424 454.148 245.067Z" fill="#212529"/>
<path d="M426.175 234.908C426.71 237.97 432.727 240.122 439.961 239.748C446.614 239.442 452.054 237.104 453.05 234.333C452.681 234.224 452.298 234.173 451.913 234.182L426.795 234.831C426.586 234.838 426.379 234.864 426.175 234.908Z" fill="#212529"/>
<path d="M441.287 258.507C441.32 258.499 441.352 258.485 441.38 258.466L444.926 256.143C444.969 256.115 445.005 256.077 445.029 256.032C445.053 255.987 445.066 255.937 445.066 255.886C445.066 255.834 445.053 255.784 445.029 255.739C445.005 255.694 444.97 255.656 444.927 255.628L441.241 253.212C441.207 253.189 441.169 253.174 441.129 253.166C441.089 253.158 441.048 253.159 441.009 253.167C440.969 253.175 440.931 253.191 440.898 253.214C440.864 253.237 440.835 253.266 440.813 253.3C440.791 253.334 440.776 253.372 440.768 253.412C440.761 253.451 440.761 253.492 440.769 253.532C440.778 253.572 440.794 253.61 440.817 253.643C440.84 253.676 440.869 253.705 440.903 253.727L444.195 255.885L441.043 257.95C440.982 257.99 440.937 258.051 440.916 258.12C440.895 258.19 440.9 258.265 440.929 258.332C440.959 258.399 441.011 258.453 441.076 258.485C441.142 258.517 441.217 258.525 441.287 258.507Z" fill="#E18F3B"/>
<path d="M435.686 258.766C435.746 258.751 435.799 258.718 435.84 258.673C435.881 258.627 435.908 258.57 435.916 258.509C435.924 258.448 435.914 258.386 435.887 258.331C435.86 258.276 435.817 258.23 435.764 258.199L432.495 256.324L435.655 253.976C435.687 253.951 435.714 253.921 435.735 253.886C435.756 253.852 435.77 253.813 435.776 253.773C435.781 253.733 435.779 253.692 435.77 253.653C435.76 253.614 435.742 253.577 435.718 253.544C435.694 253.512 435.664 253.484 435.629 253.464C435.594 253.443 435.556 253.429 435.516 253.423C435.476 253.417 435.435 253.419 435.396 253.429C435.357 253.439 435.32 253.457 435.287 253.481L431.75 256.11C431.709 256.141 431.676 256.181 431.654 256.227C431.633 256.274 431.623 256.325 431.626 256.376C431.629 256.427 431.645 256.477 431.671 256.52C431.698 256.564 431.736 256.6 431.78 256.625L435.457 258.735C435.527 258.774 435.609 258.786 435.686 258.766Z" fill="#E18F3B"/>
<path d="M440.934 260.543C440.964 260.536 440.993 260.524 441.019 260.507C441.054 260.486 441.084 260.459 441.108 260.426C441.132 260.393 441.149 260.356 441.158 260.317C441.168 260.278 441.17 260.237 441.164 260.197C441.157 260.157 441.143 260.118 441.122 260.084L436.095 251.813C436.052 251.743 435.984 251.693 435.905 251.674C435.825 251.654 435.741 251.668 435.672 251.71C435.602 251.753 435.552 251.821 435.532 251.901C435.513 251.98 435.526 252.064 435.568 252.134L440.596 260.405C440.63 260.461 440.681 260.505 440.742 260.53C440.803 260.555 440.871 260.559 440.934 260.543Z" fill="#E18F3B"/>
<path d="M158.317 160.892H131.078C129.967 160.892 129.066 161.794 129.066 162.906V165.569C129.066 166.681 129.967 167.583 131.078 167.583H158.317C159.428 167.583 160.329 166.681 160.329 165.569V162.906C160.329 161.794 159.428 160.892 158.317 160.892Z" fill="#E18F3B"/>
<path d="M174.195 174.272H115.2C114.089 174.272 113.188 175.174 113.188 176.286V178.949C113.188 180.061 114.089 180.963 115.2 180.963H174.195C175.306 180.963 176.207 180.061 176.207 178.949V176.286C176.207 175.174 175.306 174.272 174.195 174.272Z" fill="#588B8B"/>
<path d="M174.195 187.653H115.2C114.089 187.653 113.188 188.555 113.188 189.667V192.33C113.188 193.442 114.089 194.344 115.2 194.344H174.195C175.306 194.344 176.207 193.442 176.207 192.33V189.667C176.207 188.555 175.306 187.653 174.195 187.653Z" fill="#588B8B"/>
<path d="M179.196 232.459L179.33 232.881L179.337 232.895L183.359 245.133L187.986 259.235L196.691 285.735L196.775 289.852V289.866L197.422 322.982L195.629 327.471L197.647 334.832C197.647 334.832 196.719 323.705 191.741 330.095C188.921 333.726 185.623 337.441 182.916 340.925C186.861 342.522 190.869 343.967 194.94 345.259C195.819 345.541 196.705 345.808 197.591 346.076C197.781 346.132 197.971 346.188 198.161 346.245C211.657 350.239 225.609 352.483 239.676 352.923C240.407 352.944 241.125 352.958 241.821 352.972C242.067 352.979 242.306 352.986 242.545 352.986C243.332 352.993 244.113 353 244.901 353C246.49 353 248.072 352.977 249.647 352.93C261.305 352.601 272.895 351.032 284.222 348.25C284.145 343.571 283.934 338.103 283.631 332.262C283.491 329.398 280.334 326.295 280.144 323.297C280.01 321.046 282.844 318.927 282.696 316.64C281.74 302.56 280.545 307.965 279.658 297.994C279.567 297.016 279.483 296.08 279.405 295.186C278.836 288.782 278.442 284.778 278.442 284.778L282.225 260.916L288.167 223.452L287.71 222.699L287.197 222.446L255.856 206.922L254.154 202.56C253.659 201.303 252.798 200.223 251.684 199.459C250.57 198.695 249.253 198.283 247.903 198.274L227.258 198.19C226.186 198.185 225.129 198.436 224.174 198.922C223.219 199.407 222.394 200.114 221.766 200.983L216.176 208.731L179.196 232.459Z" fill="#212529"/>
<path d="M201.451 279.838L196.775 289.852L193.583 296.692L188.091 325.466L185.342 328.386L182.986 318.048L158.331 323.526C157.523 319.03 158.115 323.678 157.615 318.745C157.756 318.605 157.904 318.464 158.051 318.323C158.445 317.957 158.776 317.612 158.769 317.282C158.487 300.267 159.331 271.31 166.377 253.767C167.481 250.903 168.936 248.187 170.709 245.682C170.849 245.492 170.983 245.301 171.116 245.112C174.365 240.559 176.418 236.076 179.33 232.889V232.881C179.348 232.867 179.364 232.85 179.379 232.832C179.389 232.827 179.399 232.82 179.407 232.811L199.405 222.199L200.263 246.322L200.875 263.661L201.451 279.838Z" fill="#212529"/>
<path d="M273.562 282.683L279.403 295.189L281.441 299.545L286.931 328.316L289.672 331.229L292.033 320.894L293.142 320.666L313.15 316.519L318.981 335.053C320.296 332.862 320.814 330.283 320.447 327.754C320.081 325.224 318.853 322.899 316.971 321.171C316.573 320.81 316.241 320.459 316.251 320.127C316.583 300.114 315.359 263.571 304.312 248.531C300.804 243.758 298.699 239.004 295.636 235.683C295.627 235.673 295.627 235.664 295.617 235.664L288.164 223.451L287.709 222.701L287.197 222.445L273.562 282.683Z" fill="#212529"/>
<path d="M238.177 192.31C253.346 192.31 265.643 180.004 265.643 164.824C265.643 149.644 253.346 137.338 238.177 137.338C223.008 137.338 210.711 149.644 210.711 164.824C210.711 180.004 223.008 192.31 238.177 192.31Z" fill="#FADCA2"/>
<path d="M275.3 145.625C275.087 145.398 274.831 145.215 274.546 145.089C274.261 144.963 273.954 144.896 273.642 144.891L274.055 143.744C274.19 143.382 274.226 142.992 274.161 142.611C274.095 142.231 273.929 141.876 273.681 141.581C273.433 141.286 273.11 141.062 272.747 140.933C272.384 140.803 271.993 140.773 271.614 140.845L270.11 141.134L270.252 140.129C270.306 139.754 270.262 139.372 270.124 139.02C269.986 138.668 269.759 138.357 269.465 138.12C269.171 137.882 268.82 137.725 268.447 137.664C268.073 137.603 267.691 137.641 267.336 137.773C267.014 137.9 266.667 137.953 266.322 137.928C265.976 137.904 265.64 137.802 265.339 137.631C265.037 137.465 264.774 137.235 264.57 136.956C264.365 136.678 264.224 136.359 264.156 136.021L263.632 133.492L263.576 133.356C261.024 129.1 256.118 126.003 250.114 124.868C244.77 123.85 239.29 124.368 234.007 124.856C231.912 125.053 229.545 125.275 227.572 126.484C225.895 127.52 224.478 129.593 224.767 131.684C219.559 130.087 213.974 133.276 211.207 137.298C207.927 142.084 207.391 148.08 207.305 152.768C207.07 163.859 209.357 172.933 214.085 179.743C214.43 180.237 214.517 181.267 215.201 181.612L215.059 181.384C215.823 181.767 216.6 182.383 216.31 183.044C215.478 184.943 221.007 189.144 224.903 190.532C232.01 193.067 241.46 192.852 248.105 191.939L248.339 190.366C250.737 190.039 252.426 189.416 252.9 188.441C253.738 187.725 254.454 187.084 255.076 186.492L255.082 186.486C255.095 186.473 255.119 186.455 255.132 186.442C258.133 183.562 258.83 181.921 259.144 179.423C259.446 176.974 258.91 174.488 258.362 172.249C269.913 174.037 253.812 159.936 264.575 157.21C264.698 157.172 264.824 157.141 264.951 157.117C265.265 157.043 265.58 156.969 265.882 156.883C267.338 156.487 268.732 155.891 270.024 155.112C273.032 153.28 274.024 150.85 275.578 148.111C275.802 147.721 275.896 147.27 275.846 146.823C275.796 146.376 275.605 145.956 275.3 145.625Z" fill="#212529"/>
<path d="M335.32 284.64C335.313 285.719 335.301 287.231 335.252 289.1C335.246 289.359 335.24 289.624 335.233 289.895C335.153 293.331 335.073 296.212 334.944 299.414C334.937 299.636 334.931 299.851 334.919 300.074C334.746 304.54 334.475 309.74 334.007 317.975C333.138 333.186 331.621 320.066 330.099 325.402C330.025 325.667 329.945 325.981 329.871 326.352C329.64 327.694 329.251 329.005 328.712 330.256C327.904 330.737 327.072 331.2 326.252 331.663C323.916 332.964 321.543 334.216 319.151 335.407C317.808 336.073 316.458 336.727 315.102 337.356C314.886 337.455 314.676 337.554 314.467 337.646C307.522 340.861 300.365 343.594 293.047 345.826C291.617 346.258 290.193 346.677 288.75 347.066C287.246 347.485 285.742 347.88 284.22 348.25C272.893 351.033 261.303 352.602 249.646 352.932C248.074 352.981 246.49 353 244.899 353C244.11 353 243.334 352.994 242.545 352.987C242.304 352.987 242.064 352.981 241.823 352.975C241.127 352.957 240.406 352.944 239.678 352.926C225.611 352.487 211.659 350.241 198.163 346.245L197.59 346.079C196.702 345.807 195.821 345.542 194.94 345.258C190.871 343.969 186.863 342.526 182.913 340.928C179.899 339.713 176.92 338.409 173.976 337.017C173.949 337.01 173.924 336.997 173.902 336.98C173.285 336.696 172.663 336.4 172.046 336.098C171.966 336.055 171.88 336.012 171.794 335.968C169.494 334.846 167.22 333.67 164.97 332.44C163.078 328.091 160.415 327.258 158.763 323.434C158.282 322.298 157.934 321.109 157.727 319.893C157.727 319.881 157.721 319.868 157.721 319.85C157.894 322.145 156.987 315.779 157.715 319.825C157.709 319.751 157.702 319.671 157.696 319.579C157.678 319.356 157.653 319.085 157.616 318.746C155.502 298.087 155.638 274.462 154.719 254.994C154.657 253.735 154.594 252.53 154.528 251.379C154.51 250.997 154.485 250.62 154.46 250.25C154.503 250.139 154.553 250.022 154.608 249.911C154.62 249.879 154.634 249.848 154.651 249.818C154.669 249.78 154.69 249.743 154.713 249.707C154.725 249.689 154.744 249.664 154.756 249.646C154.765 249.624 154.775 249.604 154.787 249.584C154.842 249.498 154.904 249.405 154.972 249.319C155.003 249.282 155.027 249.251 155.058 249.22C155.079 249.189 155.104 249.16 155.132 249.134C155.151 249.104 155.174 249.077 155.2 249.054C155.225 249.029 155.249 248.998 155.28 248.967C155.293 248.948 155.31 248.931 155.329 248.918C155.378 248.862 155.432 248.81 155.49 248.764C155.71 248.561 155.944 248.376 156.192 248.208C156.279 248.153 156.371 248.097 156.457 248.036C157.079 247.664 157.733 247.35 158.411 247.098C158.646 247.012 158.88 246.932 159.133 246.845C159.225 246.821 159.311 246.79 159.404 246.759C159.539 246.716 159.675 246.672 159.817 246.642C160.519 246.432 161.278 246.253 162.097 246.086C162.196 246.068 162.301 246.049 162.406 246.025C162.554 245.994 162.708 245.969 162.862 245.945C163.071 245.908 163.287 245.871 163.503 245.834C165.334 245.544 167.411 245.328 169.704 245.186C169.92 245.174 170.135 245.161 170.351 245.149C170.604 245.137 170.857 245.124 171.115 245.112C171.331 245.1 171.553 245.093 171.775 245.087C171.991 245.075 172.213 245.069 172.441 245.062C173.063 245.044 173.704 245.025 174.358 245.013C176.219 244.976 178.179 244.988 180.238 245.032C181.194 245.056 182.168 245.081 183.166 245.124C183.234 245.124 183.296 245.13 183.357 245.13C184.226 245.161 185.102 245.198 186.002 245.248C186.63 245.278 187.265 245.309 187.9 245.346C188.498 245.383 189.102 245.42 189.712 245.463C190.187 245.488 190.662 245.525 191.142 245.556C191.549 245.587 191.956 245.618 192.363 245.642L192.918 245.679C193.22 245.704 193.522 245.723 193.83 245.753C194.508 245.809 195.186 245.864 195.876 245.92C196.561 245.982 197.257 246.043 197.954 246.105C198.65 246.167 199.353 246.235 200.056 246.302C200.13 246.309 200.197 246.315 200.265 246.321C200.906 246.389 201.547 246.45 202.195 246.518C202.343 246.531 202.497 246.543 202.645 246.561C203.262 246.623 203.891 246.696 204.514 246.762C204.705 246.783 204.895 246.803 205.086 246.824C205.574 246.877 206.055 246.923 206.546 246.981C207.194 247.055 207.853 247.123 208.494 247.209C208.994 247.265 209.493 247.32 209.992 247.382C210.775 247.474 211.57 247.573 212.365 247.678C212.667 247.715 212.969 247.752 213.271 247.795C215.54 248.079 217.833 248.393 220.163 248.72C223.695 249.22 227.282 249.763 230.894 250.349C234.513 250.935 238.152 251.554 241.811 252.206C242.736 252.372 243.66 252.539 244.591 252.711C245.01 252.792 245.429 252.872 245.848 252.952C246.563 253.082 247.278 253.217 247.993 253.353C248.708 253.489 249.424 253.624 250.139 253.766C250.989 253.933 251.846 254.099 252.697 254.266C258.3 255.376 263.872 256.561 269.309 257.801C270.203 258.004 271.096 258.214 271.984 258.417C273.759 258.831 275.518 259.25 277.26 259.676C277.741 259.787 278.216 259.904 278.69 260.021C279.874 260.317 281.057 260.613 282.222 260.916L282.426 260.971C283.283 261.181 284.121 261.397 284.959 261.619C286.938 262.137 288.884 262.661 290.797 263.192C292.066 263.543 293.322 263.899 294.563 264.259C296.418 264.796 298.237 265.338 300.006 265.887C300.443 266.023 300.881 266.159 301.313 266.288C302.607 266.689 303.883 267.096 305.122 267.504C306.108 267.824 307.07 268.151 308.019 268.478C308.968 268.805 309.899 269.132 310.811 269.459C311.397 269.669 311.976 269.891 312.556 270.101C313.388 270.409 314.208 270.717 315.009 271.026C315.256 271.118 315.496 271.217 315.736 271.31C315.891 271.377 316.038 271.433 316.186 271.495C316.476 271.612 316.772 271.723 317.056 271.84C317.345 271.951 317.629 272.068 317.912 272.192C318.19 272.303 318.473 272.42 318.744 272.537C319.022 272.648 319.293 272.765 319.564 272.889C319.792 272.981 320.014 273.08 320.23 273.179C320.668 273.37 321.105 273.561 321.531 273.759C321.74 273.857 321.95 273.95 322.159 274.048L322.64 274.271C322.708 274.308 322.776 274.338 322.844 274.369C322.998 274.443 323.158 274.523 323.312 274.597C323.669 274.764 324.021 274.943 324.366 275.109C324.828 275.344 325.278 275.578 325.71 275.807C326.147 276.041 326.573 276.275 326.98 276.504C327.047 276.541 327.109 276.578 327.177 276.615C327.269 276.664 327.362 276.719 327.454 276.769C327.769 276.948 328.071 277.133 328.373 277.312C328.964 277.676 329.525 278.033 330.049 278.391C330.166 278.471 330.277 278.551 330.395 278.625C330.783 278.903 331.153 279.174 331.498 279.452C331.498 279.458 331.498 279.458 331.504 279.458C331.621 279.545 331.732 279.637 331.843 279.723C331.936 279.81 332.034 279.884 332.127 279.97C332.447 280.248 332.743 280.513 333.014 280.784C333.105 280.868 333.192 280.957 333.273 281.05C333.309 281.079 333.342 281.113 333.372 281.148C333.495 281.272 333.606 281.395 333.711 281.519C333.727 281.535 333.741 281.554 333.754 281.574C333.902 281.747 334.037 281.92 334.167 282.092C334.229 282.179 334.296 282.265 334.352 282.351C334.426 282.456 334.5 282.567 334.561 282.672C334.617 282.758 334.666 282.851 334.716 282.937C334.846 283.16 334.958 283.393 335.048 283.634C335.118 283.798 335.173 283.967 335.215 284.14C335.262 284.304 335.297 284.471 335.32 284.64Z" fill="#212529"/>
<path opacity="0.2" d="M335.32 284.64C335.314 285.72 335.301 287.231 335.252 289.1C335.246 289.359 335.233 289.624 335.227 289.896C335.166 292.517 335.073 295.756 334.944 299.414C334.938 299.636 334.931 299.852 334.919 300.074C334.746 304.54 334.475 309.74 334.007 317.975C333.138 333.186 331.621 320.066 330.099 325.402C325.87 322.799 321.235 320.072 316.279 317.272C315.385 316.766 314.483 316.258 313.573 315.748C303.661 310.215 292.591 304.416 281.033 298.673C280.577 298.445 280.115 298.217 279.658 297.995C253.184 284.899 224.287 272.161 200.876 263.661C196.357 262.02 192.042 260.539 187.987 259.238C179.443 256.505 172.059 254.593 166.375 253.766C160.458 252.903 156.371 253.211 154.719 254.994C154.658 253.736 154.594 252.531 154.528 251.379C154.503 250.997 154.479 250.62 154.454 250.25C154.492 250.149 154.542 250.052 154.589 249.954C154.596 249.94 154.601 249.925 154.608 249.911C154.62 249.879 154.634 249.848 154.651 249.819C154.67 249.78 154.69 249.743 154.713 249.707C154.733 249.664 154.758 249.622 154.787 249.584C154.842 249.498 154.904 249.405 154.972 249.319C155.022 249.254 155.075 249.192 155.132 249.134C155.151 249.104 155.174 249.077 155.2 249.054C155.225 249.029 155.249 248.998 155.28 248.967C155.293 248.948 155.31 248.931 155.329 248.918C155.378 248.862 155.432 248.81 155.49 248.764C155.71 248.561 155.944 248.376 156.192 248.209C156.279 248.153 156.371 248.097 156.457 248.036C157.079 247.664 157.733 247.35 158.411 247.098C158.646 247.012 158.88 246.932 159.133 246.845C159.225 246.821 159.311 246.79 159.404 246.759C159.539 246.716 159.675 246.673 159.817 246.642C160.52 246.432 161.278 246.253 162.098 246.087C162.344 246.037 162.603 245.988 162.862 245.945C163.071 245.908 163.287 245.871 163.503 245.834C165.334 245.544 167.411 245.328 169.704 245.186C169.92 245.174 170.135 245.161 170.351 245.149C170.604 245.137 170.857 245.124 171.116 245.112C171.331 245.1 171.553 245.093 171.775 245.087C171.991 245.075 172.213 245.069 172.441 245.063C173.063 245.044 173.704 245.026 174.358 245.013C176.219 244.982 178.18 244.995 180.238 245.038C181.194 245.056 182.168 245.087 183.166 245.13C183.228 245.13 183.296 245.137 183.357 245.137C184.226 245.161 185.108 245.204 186.002 245.248C186.63 245.278 187.265 245.309 187.9 245.346C188.498 245.383 189.102 245.42 189.712 245.464C190.187 245.488 190.662 245.525 191.143 245.556C191.549 245.587 191.956 245.618 192.363 245.642C192.85 245.679 193.337 245.716 193.83 245.753C194.508 245.809 195.186 245.864 195.877 245.92C196.561 245.982 197.257 246.043 197.954 246.105C198.65 246.167 199.353 246.235 200.056 246.302C200.13 246.309 200.198 246.315 200.265 246.321C200.906 246.389 201.547 246.451 202.195 246.518C205.782 246.882 209.474 247.308 213.271 247.795C215.54 248.085 217.837 248.396 220.163 248.727C223.695 249.226 227.282 249.769 230.895 250.349C234.513 250.935 238.152 251.554 241.811 252.206C242.736 252.372 243.66 252.539 244.591 252.712C245.725 252.921 246.859 253.135 247.994 253.353C248.709 253.489 249.424 253.625 250.139 253.766C250.989 253.933 251.846 254.1 252.697 254.266C258.3 255.376 263.872 256.561 269.309 257.801C270.203 258.004 271.096 258.214 271.984 258.417C273.759 258.831 275.518 259.25 277.261 259.676C277.741 259.793 278.216 259.91 278.691 260.027C279.88 260.324 281.058 260.62 282.223 260.916V260.922C282.29 260.934 282.358 260.953 282.426 260.971C283.277 261.187 284.121 261.403 284.959 261.625C286.938 262.143 288.884 262.666 290.797 263.192C292.067 263.55 293.324 263.901 294.563 264.259C296.418 264.802 298.237 265.345 300.006 265.888C300.444 266.023 300.881 266.159 301.313 266.289C302.607 266.696 303.877 267.101 305.122 267.504C306.108 267.825 307.07 268.151 308.019 268.478C308.968 268.805 309.899 269.132 310.811 269.459C311.403 269.669 311.983 269.885 312.556 270.095C313.394 270.403 314.208 270.711 315.009 271.026C315.256 271.119 315.496 271.217 315.737 271.31C316.186 271.482 316.624 271.661 317.056 271.84C317.345 271.951 317.629 272.068 317.912 272.192C318.19 272.303 318.473 272.42 318.745 272.537C319.022 272.648 319.293 272.766 319.564 272.889C319.792 272.981 320.014 273.08 320.23 273.179C320.668 273.37 321.105 273.561 321.531 273.759C321.74 273.857 321.95 273.95 322.159 274.049L322.64 274.271C322.708 274.308 322.776 274.338 322.844 274.369C323.368 274.616 323.873 274.863 324.366 275.11C324.828 275.344 325.278 275.578 325.71 275.807C326.222 276.078 326.709 276.343 327.177 276.615C327.269 276.664 327.362 276.72 327.454 276.769C327.769 276.948 328.071 277.133 328.373 277.312C328.965 277.676 329.526 278.033 330.049 278.391C330.567 278.749 331.048 279.101 331.498 279.452C331.498 279.458 331.498 279.458 331.504 279.458C331.72 279.631 331.929 279.804 332.127 279.97C332.447 280.248 332.743 280.513 333.014 280.785C333.105 280.868 333.192 280.957 333.273 281.05C333.309 281.08 333.342 281.113 333.372 281.149C333.501 281.29 333.631 281.432 333.754 281.574C333.902 281.747 334.038 281.92 334.167 282.092C334.229 282.179 334.297 282.265 334.352 282.351C334.426 282.456 334.5 282.567 334.562 282.672C334.617 282.759 334.666 282.851 334.716 282.937C334.847 283.16 334.958 283.393 335.049 283.634C335.116 283.799 335.172 283.968 335.215 284.14C335.262 284.304 335.297 284.471 335.32 284.64Z" fill="#495057"/>
</g>
<defs>
<clipPath id="clip0_1_159">
<rect width="485" height="353" fill="white"/>
</clipPath>
</defs>
</svg>
