<?xml version="1.0" standalone="no"?>
<!DOCTYPE svg PUBLIC "-//W3C//DTD SVG 20010904//EN"
 "http://www.w3.org/TR/2001/REC-SVG-20010904/DTD/svg10.dtd">
<svg version="1.0" xmlns="http://www.w3.org/2000/svg"
 width="79.000000pt" height="79.000000pt" viewBox="0 0 79.000000 79.000000"
 preserveAspectRatio="xMidYMid meet">
<metadata>
Created by potrace 1.14, written by Peter Selinger 2001-2017
</metadata>
<g transform="translate(0.000000,79.000000) scale(0.100000,-0.100000)"
fill="#000000" stroke="none">
<path d="M715 760 c-27 -10 -88 -78 -132 -147 -35 -55 -110 -209 -131 -268
-21 -59 -13 80 9 180 25 106 20 149 -11 100 -36 -57 -57 -314 -30 -364 15 -29
34 -22 38 15 12 118 174 406 261 463 23 15 23 15 16 -19 -4 -19 -33 -105 -65
-190 -74 -199 -103 -300 -106 -375 -2 -67 5 -88 41 -111 31 -20 70 -12 86 18
12 22 12 22 -15 5 -52 -35 -81 12 -79 129 2 100 61 264 149 414 42 70 52 121
29 143 -18 19 -30 20 -60 7z"/>
<path d="M165 702 c-38 -6 -99 -57 -122 -102 -79 -156 -13 -394 122 -446 54
-20 121 -15 158 12 37 27 58 84 51 136 -9 68 -20 64 -16 -5 3 -52 1 -66 -18
-90 -24 -30 -66 -54 -90 -52 -8 1 -27 3 -41 3 -34 2 -104 68 -126 118 -82 194
-22 414 114 414 82 0 134 -53 128 -131 -3 -37 -40 -103 -53 -95 -4 2 -16 0
-27 -5 -18 -7 -17 -8 7 -8 38 -1 86 43 98 90 28 104 -61 182 -185 161z"/>
</g>
</svg>
